<mxfile host="app.diagrams.net" agent="Mozilla/5.0 (Windows NT 10.0; Win64; x64) AppleWebKit/537.36 (KHTML, like Gecko) Chrome/133.0.0.0 Safari/537.36" version="26.0.16">
  <diagram name="Página-1" id="XKHiT75f1eJCmOLja3tE">
    <mxGraphModel dx="2261" dy="1955" grid="1" gridSize="10" guides="1" tooltips="1" connect="1" arrows="1" fold="1" page="1" pageScale="1" pageWidth="827" pageHeight="1169" math="0" shadow="0">
      <root>
        <mxCell id="0" />
        <mxCell id="1" parent="0" />
        <mxCell id="0BqdRpyKkFhcS2StVWQ--41" value="" style="edgeStyle=orthogonalEdgeStyle;rounded=0;orthogonalLoop=1;jettySize=auto;html=1;" parent="1" source="0BqdRpyKkFhcS2StVWQ--2" target="0BqdRpyKkFhcS2StVWQ--40" edge="1">
          <mxGeometry relative="1" as="geometry" />
        </mxCell>
        <mxCell id="0BqdRpyKkFhcS2StVWQ--2" value="Padrón Único de Beneficiarios&amp;nbsp;&amp;nbsp;" style="rounded=1;whiteSpace=wrap;html=1;strokeWidth=5;" parent="1" vertex="1">
          <mxGeometry x="320" y="20" width="120" height="60" as="geometry" />
        </mxCell>
        <mxCell id="0BqdRpyKkFhcS2StVWQ--3" value="Plataforma&amp;nbsp; de Programas Sociales&amp;nbsp;" style="rounded=0;whiteSpace=wrap;html=1;" parent="1" vertex="1">
          <mxGeometry x="440" y="110" width="120" height="60" as="geometry" />
        </mxCell>
        <mxCell id="0BqdRpyKkFhcS2StVWQ--44" value="" style="edgeStyle=orthogonalEdgeStyle;rounded=0;orthogonalLoop=1;jettySize=auto;html=1;exitX=0.25;exitY=1;exitDx=0;exitDy=0;" parent="1" source="0BqdRpyKkFhcS2StVWQ--4" target="0BqdRpyKkFhcS2StVWQ--43" edge="1">
          <mxGeometry relative="1" as="geometry" />
        </mxCell>
        <mxCell id="0BqdRpyKkFhcS2StVWQ--4" value="Registro Universal de Beneficiarios&amp;nbsp;" style="rounded=0;whiteSpace=wrap;html=1;" parent="1" vertex="1">
          <mxGeometry x="200" y="110" width="120" height="60" as="geometry" />
        </mxCell>
        <mxCell id="0BqdRpyKkFhcS2StVWQ--28" value="" style="edgeStyle=orthogonalEdgeStyle;rounded=0;orthogonalLoop=1;jettySize=auto;html=1;" parent="1" source="0BqdRpyKkFhcS2StVWQ--16" target="0BqdRpyKkFhcS2StVWQ--27" edge="1">
          <mxGeometry relative="1" as="geometry" />
        </mxCell>
        <mxCell id="0BqdRpyKkFhcS2StVWQ--16" value="Alimentado por los P.p. que tengan actividades con apoyos" style="rounded=0;whiteSpace=wrap;html=1;" parent="1" vertex="1">
          <mxGeometry x="590" y="20" width="120" height="60" as="geometry" />
        </mxCell>
        <mxCell id="0BqdRpyKkFhcS2StVWQ--34" value="" style="edgeStyle=orthogonalEdgeStyle;rounded=0;orthogonalLoop=1;jettySize=auto;html=1;exitX=0.996;exitY=0.118;exitDx=0;exitDy=0;exitPerimeter=0;" parent="1" source="0BqdRpyKkFhcS2StVWQ--19" target="0BqdRpyKkFhcS2StVWQ--33" edge="1">
          <mxGeometry relative="1" as="geometry" />
        </mxCell>
        <mxCell id="0BqdRpyKkFhcS2StVWQ--19" value="Desarrollar tipología&amp;nbsp;&lt;div&gt;y clasificación&lt;/div&gt;" style="swimlane;fontStyle=0;childLayout=stackLayout;horizontal=1;startSize=30;horizontalStack=0;resizeParent=1;resizeParentMax=0;resizeLast=0;collapsible=1;marginBottom=0;whiteSpace=wrap;html=1;" parent="1" vertex="1">
          <mxGeometry x="900" y="20" width="190" height="120" as="geometry">
            <mxRectangle x="1010" y="35" width="60" height="30" as="alternateBounds" />
          </mxGeometry>
        </mxCell>
        <mxCell id="0BqdRpyKkFhcS2StVWQ--20" value="Por fin y propósito" style="text;strokeColor=none;fillColor=none;align=left;verticalAlign=middle;spacingLeft=4;spacingRight=4;overflow=hidden;points=[[0,0.5],[1,0.5]];portConstraint=eastwest;rotatable=0;whiteSpace=wrap;html=1;" parent="0BqdRpyKkFhcS2StVWQ--19" vertex="1">
          <mxGeometry y="30" width="190" height="30" as="geometry" />
        </mxCell>
        <mxCell id="0BqdRpyKkFhcS2StVWQ--26" value="Por población objeto" style="text;strokeColor=none;fillColor=none;align=left;verticalAlign=middle;spacingLeft=4;spacingRight=4;overflow=hidden;points=[[0,0.5],[1,0.5]];portConstraint=eastwest;rotatable=0;whiteSpace=wrap;html=1;" parent="0BqdRpyKkFhcS2StVWQ--19" vertex="1">
          <mxGeometry y="60" width="190" height="30" as="geometry" />
        </mxCell>
        <mxCell id="0BqdRpyKkFhcS2StVWQ--22" value="Operación y Ejecución&amp;nbsp;" style="text;strokeColor=none;fillColor=none;align=left;verticalAlign=middle;spacingLeft=4;spacingRight=4;overflow=hidden;points=[[0,0.5],[1,0.5]];portConstraint=eastwest;rotatable=0;whiteSpace=wrap;html=1;" parent="0BqdRpyKkFhcS2StVWQ--19" vertex="1">
          <mxGeometry y="90" width="190" height="30" as="geometry" />
        </mxCell>
        <mxCell id="0BqdRpyKkFhcS2StVWQ--23" value="" style="endArrow=none;html=1;rounded=0;exitX=1;exitY=0.5;exitDx=0;exitDy=0;entryX=0;entryY=0.5;entryDx=0;entryDy=0;" parent="1" source="0BqdRpyKkFhcS2StVWQ--3" target="0BqdRpyKkFhcS2StVWQ--16" edge="1">
          <mxGeometry width="50" height="50" relative="1" as="geometry">
            <mxPoint x="550" y="170" as="sourcePoint" />
            <mxPoint x="600" y="120" as="targetPoint" />
            <Array as="points">
              <mxPoint x="560" y="50" />
            </Array>
          </mxGeometry>
        </mxCell>
        <mxCell id="0BqdRpyKkFhcS2StVWQ--24" value="" style="endArrow=none;html=1;rounded=0;exitX=1;exitY=0.5;exitDx=0;exitDy=0;entryX=0;entryY=0.25;entryDx=0;entryDy=0;" parent="1" source="0BqdRpyKkFhcS2StVWQ--16" target="0BqdRpyKkFhcS2StVWQ--19" edge="1">
          <mxGeometry width="50" height="50" relative="1" as="geometry">
            <mxPoint x="720" y="50" as="sourcePoint" />
            <mxPoint x="770" as="targetPoint" />
          </mxGeometry>
        </mxCell>
        <mxCell id="0BqdRpyKkFhcS2StVWQ--30" value="" style="edgeStyle=orthogonalEdgeStyle;rounded=0;orthogonalLoop=1;jettySize=auto;html=1;" parent="1" source="0BqdRpyKkFhcS2StVWQ--27" target="0BqdRpyKkFhcS2StVWQ--29" edge="1">
          <mxGeometry relative="1" as="geometry" />
        </mxCell>
        <mxCell id="0BqdRpyKkFhcS2StVWQ--27" value="&lt;div style=&quot;text-align: justify;&quot;&gt;&lt;span style=&quot;background-color: initial;&quot;&gt;Los Programas Presupuestales (P.p.) identifican desde su&amp;nbsp; Programación y generación los fines de su ejecución, esto delimita si existe dentro de su operatividad el otorgamiento asistencialista derivado en programas sociales o apoyos&amp;nbsp;&lt;/span&gt;&lt;/div&gt;" style="whiteSpace=wrap;html=1;rounded=0;" parent="1" vertex="1">
          <mxGeometry x="500" y="-220" width="300" height="150" as="geometry" />
        </mxCell>
        <mxCell id="0BqdRpyKkFhcS2StVWQ--29" value="La DPSAG se encarga del seguimiento a estas especificaciones&amp;nbsp;" style="whiteSpace=wrap;html=1;rounded=0;" parent="1" vertex="1">
          <mxGeometry x="970" y="-175" width="120" height="60" as="geometry" />
        </mxCell>
        <mxCell id="0BqdRpyKkFhcS2StVWQ--33" value="A fin de contar con nomenclaturas que nos hagan correlacionar los datos&amp;nbsp;&amp;nbsp;" style="whiteSpace=wrap;html=1;fontStyle=0;startSize=30;" parent="1" vertex="1">
          <mxGeometry x="1160" y="-110" width="170" height="110" as="geometry" />
        </mxCell>
        <mxCell id="0BqdRpyKkFhcS2StVWQ--35" value="" style="endArrow=none;html=1;rounded=0;entryX=0.5;entryY=1;entryDx=0;entryDy=0;exitX=0;exitY=0.5;exitDx=0;exitDy=0;" parent="1" source="0BqdRpyKkFhcS2StVWQ--3" target="0BqdRpyKkFhcS2StVWQ--2" edge="1">
          <mxGeometry width="50" height="50" relative="1" as="geometry">
            <mxPoint x="410" y="140" as="sourcePoint" />
            <mxPoint x="405" y="115" as="targetPoint" />
            <Array as="points">
              <mxPoint x="400" y="140" />
            </Array>
          </mxGeometry>
        </mxCell>
        <mxCell id="0BqdRpyKkFhcS2StVWQ--36" value="" style="endArrow=none;html=1;rounded=0;entryX=0.5;entryY=1;entryDx=0;entryDy=0;exitX=1;exitY=0.5;exitDx=0;exitDy=0;" parent="1" source="0BqdRpyKkFhcS2StVWQ--4" target="0BqdRpyKkFhcS2StVWQ--2" edge="1">
          <mxGeometry width="50" height="50" relative="1" as="geometry">
            <mxPoint x="330" y="140" as="sourcePoint" />
            <mxPoint x="380" y="90" as="targetPoint" />
            <Array as="points">
              <mxPoint x="360" y="140" />
            </Array>
          </mxGeometry>
        </mxCell>
        <mxCell id="0BqdRpyKkFhcS2StVWQ--21" value="Por Normativa&amp;nbsp;" style="text;strokeColor=none;fillColor=none;align=center;verticalAlign=middle;spacingLeft=4;spacingRight=4;overflow=hidden;points=[[0,0.5],[1,0.5]];portConstraint=eastwest;rotatable=0;whiteSpace=wrap;html=1;" parent="1" vertex="1">
          <mxGeometry x="920" y="-60" width="160" height="30" as="geometry" />
        </mxCell>
        <mxCell id="0BqdRpyKkFhcS2StVWQ--37" value="" style="endArrow=none;dashed=1;html=1;dashPattern=1 3;strokeWidth=2;rounded=0;exitX=0.5;exitY=0;exitDx=0;exitDy=0;entryX=0.476;entryY=1.024;entryDx=0;entryDy=0;entryPerimeter=0;" parent="1" source="0BqdRpyKkFhcS2StVWQ--19" target="0BqdRpyKkFhcS2StVWQ--21" edge="1">
          <mxGeometry width="50" height="50" relative="1" as="geometry">
            <mxPoint x="930" y="10" as="sourcePoint" />
            <mxPoint x="980" y="-40" as="targetPoint" />
          </mxGeometry>
        </mxCell>
        <mxCell id="0BqdRpyKkFhcS2StVWQ--39" value="" style="endArrow=none;dashed=1;html=1;dashPattern=1 3;strokeWidth=2;rounded=0;exitX=0.494;exitY=-0.024;exitDx=0;exitDy=0;exitPerimeter=0;entryX=0.5;entryY=1;entryDx=0;entryDy=0;" parent="1" source="0BqdRpyKkFhcS2StVWQ--21" target="0BqdRpyKkFhcS2StVWQ--29" edge="1">
          <mxGeometry width="50" height="50" relative="1" as="geometry">
            <mxPoint x="940" y="-70" as="sourcePoint" />
            <mxPoint x="990" y="-120" as="targetPoint" />
          </mxGeometry>
        </mxCell>
        <mxCell id="0BqdRpyKkFhcS2StVWQ--40" value="Necesidad Estatal y Federal de contar con un registro confiable y eficiente de las acciones que impactan directamente en la población para la medición de los beneficiarios, impactos y seguimiento de políticas públicas&amp;nbsp;&amp;nbsp;" style="whiteSpace=wrap;html=1;rounded=1;strokeWidth=2;" parent="1" vertex="1">
          <mxGeometry x="170" y="-290" width="220" height="100" as="geometry" />
        </mxCell>
        <mxCell id="0BqdRpyKkFhcS2StVWQ--42" value="" style="endArrow=none;dashed=1;html=1;dashPattern=1 3;strokeWidth=2;rounded=0;exitX=1;exitY=0.5;exitDx=0;exitDy=0;entryX=0.5;entryY=0;entryDx=0;entryDy=0;" parent="1" source="0BqdRpyKkFhcS2StVWQ--33" target="0BqdRpyKkFhcS2StVWQ--50" edge="1">
          <mxGeometry width="50" height="50" relative="1" as="geometry">
            <mxPoint x="1350" y="-50" as="sourcePoint" />
            <mxPoint x="1530" y="250" as="targetPoint" />
            <Array as="points">
              <mxPoint x="1500" y="-55" />
            </Array>
          </mxGeometry>
        </mxCell>
        <mxCell id="0BqdRpyKkFhcS2StVWQ--47" value="" style="edgeStyle=orthogonalEdgeStyle;rounded=0;orthogonalLoop=1;jettySize=auto;html=1;" parent="1" source="0BqdRpyKkFhcS2StVWQ--43" target="0BqdRpyKkFhcS2StVWQ--46" edge="1">
          <mxGeometry relative="1" as="geometry" />
        </mxCell>
        <mxCell id="0BqdRpyKkFhcS2StVWQ--43" value="Existen documentos oficiales validados que cuentan con datos de registro únicos como la CURP, INE o el RFC.&lt;div&gt;Mismos que pueden optimizarse para la creación de un padrón general que este ligado dentro de un sistema a la &lt;b&gt;plataforma de programas sociales,&amp;nbsp;&lt;/b&gt;&lt;/div&gt;" style="whiteSpace=wrap;html=1;rounded=0;" parent="1" vertex="1">
          <mxGeometry x="-150" y="310" width="270" height="120" as="geometry" />
        </mxCell>
        <mxCell id="0BqdRpyKkFhcS2StVWQ--49" value="" style="edgeStyle=orthogonalEdgeStyle;rounded=0;orthogonalLoop=1;jettySize=auto;html=1;" parent="1" source="0BqdRpyKkFhcS2StVWQ--46" target="0BqdRpyKkFhcS2StVWQ--48" edge="1">
          <mxGeometry relative="1" as="geometry" />
        </mxCell>
        <mxCell id="0BqdRpyKkFhcS2StVWQ--46" value="Un dato que podría ser utilizado es el CIC (Código de Identificación de Credencial) 9 dígitos&amp;nbsp;" style="whiteSpace=wrap;html=1;rounded=0;" parent="1" vertex="1">
          <mxGeometry x="-480" y="590" width="195" height="90" as="geometry" />
        </mxCell>
        <mxCell id="0BqdRpyKkFhcS2StVWQ--48" value="Este número fungiría como el número que identifique al beneficiario entre los de mas ciudadanos como usuario de dicho programa&amp;nbsp;" style="whiteSpace=wrap;html=1;rounded=0;" parent="1" vertex="1">
          <mxGeometry x="60" y="590" width="195" height="90" as="geometry" />
        </mxCell>
        <mxCell id="0BqdRpyKkFhcS2StVWQ--50" value="Una nomenclatura que correlacione Dependencia--Beneficiario&amp;nbsp;" style="rounded=0;whiteSpace=wrap;html=1;" parent="1" vertex="1">
          <mxGeometry x="1400" y="270" width="200" height="60" as="geometry" />
        </mxCell>
        <mxCell id="0BqdRpyKkFhcS2StVWQ--51" value="Contar con una plataforma en la cual las dependencias den de alta sus programas sociales a petición del DPSAG" style="rounded=0;whiteSpace=wrap;html=1;" parent="1" vertex="1">
          <mxGeometry x="450" y="300" width="270" height="140" as="geometry" />
        </mxCell>
        <mxCell id="0BqdRpyKkFhcS2StVWQ--53" value="A la par homologar dentro de las normativas que todos los sujetos solicitantes de un programa social&amp;nbsp; cuenten con su INE y hacer uso de su CIC como numero de identificación&amp;nbsp;" style="rounded=0;whiteSpace=wrap;html=1;" parent="1" vertex="1">
          <mxGeometry x="760" y="480" width="220" height="120" as="geometry" />
        </mxCell>
        <mxCell id="0BqdRpyKkFhcS2StVWQ--54" value="" style="endArrow=classic;html=1;rounded=0;exitX=1;exitY=0.5;exitDx=0;exitDy=0;entryX=0.5;entryY=0;entryDx=0;entryDy=0;" parent="1" source="0BqdRpyKkFhcS2StVWQ--51" target="0BqdRpyKkFhcS2StVWQ--53" edge="1">
          <mxGeometry width="50" height="50" relative="1" as="geometry">
            <mxPoint x="790" y="560" as="sourcePoint" />
            <mxPoint x="900" y="370" as="targetPoint" />
            <Array as="points">
              <mxPoint x="870" y="370" />
            </Array>
          </mxGeometry>
        </mxCell>
        <mxCell id="0BqdRpyKkFhcS2StVWQ--55" value="" style="endArrow=classic;html=1;rounded=0;exitX=0.5;exitY=1;exitDx=0;exitDy=0;entryX=0.5;entryY=0;entryDx=0;entryDy=0;" parent="1" source="0BqdRpyKkFhcS2StVWQ--3" target="0BqdRpyKkFhcS2StVWQ--51" edge="1">
          <mxGeometry width="50" height="50" relative="1" as="geometry">
            <mxPoint x="620" y="270" as="sourcePoint" />
            <mxPoint x="670" y="220" as="targetPoint" />
            <Array as="points">
              <mxPoint x="500" y="220" />
              <mxPoint x="585" y="220" />
            </Array>
          </mxGeometry>
        </mxCell>
        <mxCell id="0BqdRpyKkFhcS2StVWQ--56" value="" style="endArrow=none;dashed=1;html=1;dashPattern=1 3;strokeWidth=2;rounded=0;exitX=1;exitY=0.5;exitDx=0;exitDy=0;entryX=0;entryY=0.5;entryDx=0;entryDy=0;" parent="1" source="0BqdRpyKkFhcS2StVWQ--43" target="0BqdRpyKkFhcS2StVWQ--53" edge="1">
          <mxGeometry width="50" height="50" relative="1" as="geometry">
            <mxPoint x="390" y="420" as="sourcePoint" />
            <mxPoint x="510" y="560" as="targetPoint" />
            <Array as="points">
              <mxPoint x="320" y="370" />
              <mxPoint x="320" y="540" />
            </Array>
          </mxGeometry>
        </mxCell>
        <mxCell id="0BqdRpyKkFhcS2StVWQ--57" value="" style="endArrow=none;dashed=1;html=1;dashPattern=1 3;strokeWidth=2;rounded=0;entryX=0;entryY=0.5;entryDx=0;entryDy=0;exitX=1;exitY=0.25;exitDx=0;exitDy=0;" parent="1" source="0BqdRpyKkFhcS2StVWQ--51" target="0BqdRpyKkFhcS2StVWQ--50" edge="1">
          <mxGeometry width="50" height="50" relative="1" as="geometry">
            <mxPoint x="920" y="420" as="sourcePoint" />
            <mxPoint x="970" y="370" as="targetPoint" />
            <Array as="points">
              <mxPoint x="890" y="335" />
              <mxPoint x="970" y="300" />
              <mxPoint x="1060" y="300" />
            </Array>
          </mxGeometry>
        </mxCell>
        <mxCell id="0BqdRpyKkFhcS2StVWQ--58" value="" style="endArrow=none;dashed=1;html=1;dashPattern=1 3;strokeWidth=2;rounded=0;exitX=1;exitY=0.5;exitDx=0;exitDy=0;entryX=0.5;entryY=1;entryDx=0;entryDy=0;" parent="1" source="0BqdRpyKkFhcS2StVWQ--48" target="0BqdRpyKkFhcS2StVWQ--53" edge="1">
          <mxGeometry width="50" height="50" relative="1" as="geometry">
            <mxPoint x="310" y="640" as="sourcePoint" />
            <mxPoint x="880" y="635" as="targetPoint" />
            <Array as="points">
              <mxPoint x="560" y="640" />
              <mxPoint x="720" y="640" />
              <mxPoint x="870" y="640" />
            </Array>
          </mxGeometry>
        </mxCell>
        <mxCell id="0BqdRpyKkFhcS2StVWQ--59" value="" style="endArrow=classic;html=1;rounded=0;exitX=0.75;exitY=1;exitDx=0;exitDy=0;entryX=0.5;entryY=0;entryDx=0;entryDy=0;" parent="1" source="0BqdRpyKkFhcS2StVWQ--53" target="0BqdRpyKkFhcS2StVWQ--60" edge="1">
          <mxGeometry width="50" height="50" relative="1" as="geometry">
            <mxPoint x="970" y="700" as="sourcePoint" />
            <mxPoint x="1010" y="790" as="targetPoint" />
            <Array as="points">
              <mxPoint x="925" y="720" />
              <mxPoint x="1010" y="720" />
            </Array>
          </mxGeometry>
        </mxCell>
        <mxCell id="0BqdRpyKkFhcS2StVWQ--60" value="Contar con una plataforma que concentre los datos de los programas sociales y los beneficiarios de estos para tener un control, monitoreo y seguimiento de las políticas publicas con información actualizada por los sujetos obligados&amp;nbsp;" style="rounded=0;whiteSpace=wrap;html=1;" parent="1" vertex="1">
          <mxGeometry x="905" y="810" width="250" height="120" as="geometry" />
        </mxCell>
        <mxCell id="0BqdRpyKkFhcS2StVWQ--62" value="Beneficios" style="swimlane;fontStyle=0;childLayout=stackLayout;horizontal=1;startSize=30;horizontalStack=0;resizeParent=1;resizeParentMax=0;resizeLast=0;collapsible=1;marginBottom=0;whiteSpace=wrap;html=1;" parent="1" vertex="1">
          <mxGeometry x="549" y="870" width="140" height="200" as="geometry" />
        </mxCell>
        <mxCell id="0BqdRpyKkFhcS2StVWQ--63" value="Control" style="text;strokeColor=none;fillColor=none;align=left;verticalAlign=middle;spacingLeft=4;spacingRight=4;overflow=hidden;points=[[0,0.5],[1,0.5]];portConstraint=eastwest;rotatable=0;whiteSpace=wrap;html=1;" parent="0BqdRpyKkFhcS2StVWQ--62" vertex="1">
          <mxGeometry y="30" width="140" height="30" as="geometry" />
        </mxCell>
        <mxCell id="0BqdRpyKkFhcS2StVWQ--64" value="Evaluación&amp;nbsp;" style="text;strokeColor=none;fillColor=none;align=left;verticalAlign=middle;spacingLeft=4;spacingRight=4;overflow=hidden;points=[[0,0.5],[1,0.5]];portConstraint=eastwest;rotatable=0;whiteSpace=wrap;html=1;" parent="0BqdRpyKkFhcS2StVWQ--62" vertex="1">
          <mxGeometry y="60" width="140" height="30" as="geometry" />
        </mxCell>
        <mxCell id="0BqdRpyKkFhcS2StVWQ--66" value="Seguimiento" style="text;strokeColor=none;fillColor=none;align=left;verticalAlign=middle;spacingLeft=4;spacingRight=4;overflow=hidden;points=[[0,0.5],[1,0.5]];portConstraint=eastwest;rotatable=0;whiteSpace=wrap;html=1;" parent="0BqdRpyKkFhcS2StVWQ--62" vertex="1">
          <mxGeometry y="90" width="140" height="30" as="geometry" />
        </mxCell>
        <mxCell id="0BqdRpyKkFhcS2StVWQ--67" value="Impacto&amp;nbsp;" style="text;strokeColor=none;fillColor=none;align=left;verticalAlign=middle;spacingLeft=4;spacingRight=4;overflow=hidden;points=[[0,0.5],[1,0.5]];portConstraint=eastwest;rotatable=0;whiteSpace=wrap;html=1;" parent="0BqdRpyKkFhcS2StVWQ--62" vertex="1">
          <mxGeometry y="120" width="140" height="30" as="geometry" />
        </mxCell>
        <mxCell id="0BqdRpyKkFhcS2StVWQ--65" value="mecanismos de transparencia mas claros" style="text;strokeColor=none;fillColor=none;align=left;verticalAlign=middle;spacingLeft=4;spacingRight=4;overflow=hidden;points=[[0,0.5],[1,0.5]];portConstraint=eastwest;rotatable=0;whiteSpace=wrap;html=1;" parent="0BqdRpyKkFhcS2StVWQ--62" vertex="1">
          <mxGeometry y="150" width="140" height="50" as="geometry" />
        </mxCell>
        <mxCell id="0BqdRpyKkFhcS2StVWQ--69" value="" style="endArrow=classic;html=1;rounded=0;entryX=1;entryY=0.5;entryDx=0;entryDy=0;exitX=0;exitY=0.5;exitDx=0;exitDy=0;" parent="1" source="0BqdRpyKkFhcS2StVWQ--60" target="0BqdRpyKkFhcS2StVWQ--63" edge="1">
          <mxGeometry width="50" height="50" relative="1" as="geometry">
            <mxPoint x="590" y="850" as="sourcePoint" />
            <mxPoint x="640" y="800" as="targetPoint" />
          </mxGeometry>
        </mxCell>
      </root>
    </mxGraphModel>
  </diagram>
</mxfile>
